HIERARCHY
ROOT Hips
{
  OFFSET 0 0.240689 0
  CHANNELS 6 Xposition Yposition Zposition Zrotation Xrotation Yrotation
  JOINT Bip01_Spine0
  {
    OFFSET 0 -24.7459 49.7988
    CHANNELS 6 Xposition Yposition Zposition Zrotation Xrotation Yrotation
    JOINT Bip01_Pelvis
    {
      OFFSET 0 0 0
      CHANNELS 6 Xposition Yposition Zposition Zrotation Xrotation Yrotation
      JOINT Bip01_Spine0_Tail
      {
        OFFSET -6.47486 -3.86022 0
        CHANNELS 6 Xposition Yposition Zposition Zrotation Xrotation Yrotation
        JOINT Bip01_Spine0_Tail1
        {
          OFFSET 10.3837 -0.00825882 0
          CHANNELS 6 Xposition Yposition Zposition Zrotation Xrotation Yrotation
          JOINT Bip01_Spine0_Tail2
          {
            OFFSET 10.3837 -0.00826263 0
            CHANNELS 6 Xposition Yposition Zposition Zrotation Xrotation Yrotation
            JOINT Bip01_Spine0_Tail3
            {
              OFFSET 10.3837 -0.00825882 0
              CHANNELS 6 Xposition Yposition Zposition Zrotation Xrotation Yrotation
              JOINT Bip01_Spine0_Tail4
              {
                OFFSET 10.3837 -0.00826263 0
                CHANNELS 6 Xposition Yposition Zposition Zrotation Xrotation Yrotation
                End Site
                {
                  OFFSET 0 0 0
                }
              }
            }
          }
        }
      }
      JOINT Bip01_R_Thigh
      {
        OFFSET 0 -1.52588e-005 -8.75617
        CHANNELS 6 Xposition Yposition Zposition Zrotation Xrotation Yrotation
        JOINT Bip01_R_Calf
        {
          OFFSET 19.7638 0 0
          CHANNELS 6 Xposition Yposition Zposition Zrotation Xrotation Yrotation
          JOINT Bip01_R_Foot
          {
            OFFSET 18.6534 0 0
            CHANNELS 6 Xposition Yposition Zposition Zrotation Xrotation Yrotation
            JOINT Bip01_R_Toe0
            {
              OFFSET 5.09145 13.9567 0
              CHANNELS 6 Xposition Yposition Zposition Zrotation Xrotation Yrotation
              JOINT Bip01_R_Toe01
              {
                OFFSET 4.28803 0 0
                CHANNELS 6 Xposition Yposition Zposition Zrotation Xrotation Yrotation
                JOINT Bip01_R_Toe02
                {
                  OFFSET 3.85801 0 0
                  CHANNELS 6 Xposition Yposition Zposition Zrotation Xrotation Yrotation
                  End Site
                  {
                    OFFSET 0 0 0
                  }
                }
              }
            }
          }
        }
      }
      JOINT Bip01_L_Thigh
      {
        OFFSET 0 1.52588e-005 8.75617
        CHANNELS 6 Xposition Yposition Zposition Zrotation Xrotation Yrotation
        JOINT Bip01_L_Calf
        {
          OFFSET 19.7638 0 0
          CHANNELS 6 Xposition Yposition Zposition Zrotation Xrotation Yrotation
          JOINT Bip01_L_Foot
          {
            OFFSET 18.6534 0 0
            CHANNELS 6 Xposition Yposition Zposition Zrotation Xrotation Yrotation
            JOINT Bip01_L_Toe0
            {
              OFFSET 5.09144 13.9567 0
              CHANNELS 6 Xposition Yposition Zposition Zrotation Xrotation Yrotation
              JOINT Bip01_L_Toe01
              {
                OFFSET 4.28802 0 0
                CHANNELS 6 Xposition Yposition Zposition Zrotation Xrotation Yrotation
                JOINT Bip01_L_Toe02
                {
                  OFFSET 3.85801 0 0
                  CHANNELS 6 Xposition Yposition Zposition Zrotation Xrotation Yrotation
                  End Site
                  {
                    OFFSET 0 0 0
                  }
                }
              }
            }
          }
        }
      }
      JOINT Bip01_Spine
      {
        OFFSET 9.14835 -0.00640869 -1.1e-005
        CHANNELS 6 Xposition Yposition Zposition Zrotation Xrotation Yrotation
        JOINT Bip01_Spine1
        {
          OFFSET 8.04366 -0.00638199 0
          CHANNELS 6 Xposition Yposition Zposition Zrotation Xrotation Yrotation
          JOINT Bip01_Spine2
          {
            OFFSET 8.04367 -0.00639343 0
            CHANNELS 6 Xposition Yposition Zposition Zrotation Xrotation Yrotation
            JOINT Bip01_Spine3
            {
              OFFSET 8.04304 -0.00831222 0
              CHANNELS 6 Xposition Yposition Zposition Zrotation Xrotation Yrotation
              JOINT Bip01_Neck
              {
                OFFSET 10.6685 1.06813 0
                CHANNELS 6 Xposition Yposition Zposition Zrotation Xrotation Yrotation
                JOINT Bip01_R_Clavicle
                {
                  OFFSET -3.21661 -4.89635 -9.04802
                  CHANNELS 6 Xposition Yposition Zposition Zrotation Xrotation Yrotation
                  JOINT Bip01_R_UpperArm
                  {
                    OFFSET 19.0492 0 0
                    CHANNELS 6 Xposition Yposition Zposition Zrotation Xrotation Yrotation
                    JOINT Bip01_R_Forearm
                    {
                      OFFSET 10.3706 0 0
                      CHANNELS 6 Xposition Yposition Zposition Zrotation Xrotation Yrotation
                      JOINT Bip01_R_Hand
                      {
                        OFFSET 22.8632 0 0
                        CHANNELS 6 Xposition Yposition Zposition Zrotation Xrotation Yrotation
                        JOINT Bip01_R_Finger0
                        {
                          OFFSET 6.48259 0.103651 0.504496
                          CHANNELS 6 Xposition Yposition Zposition Zrotation Xrotation Yrotation
                          JOINT Bip01_R_Finger01
                          {
                            OFFSET 3.66847 0 0
                            CHANNELS 6 Xposition Yposition Zposition Zrotation Xrotation Yrotation
                            End Site
                            {
                              OFFSET 0 0 0
                            }
                          }
                        }
                      }
                    }
                  }
                }
                JOINT Bip01_L_Clavicle
                {
                  OFFSET -3.21661 -4.89641 9.04797
                  CHANNELS 6 Xposition Yposition Zposition Zrotation Xrotation Yrotation
                  JOINT Bip01_L_UpperArm
                  {
                    OFFSET 19.0492 0 0
                    CHANNELS 6 Xposition Yposition Zposition Zrotation Xrotation Yrotation
                    JOINT Bip01_L_Forearm
                    {
                      OFFSET 10.3706 0 0
                      CHANNELS 6 Xposition Yposition Zposition Zrotation Xrotation Yrotation
                      JOINT Bip01_L_Hand
                      {
                        OFFSET 22.8631 0 0
                        CHANNELS 6 Xposition Yposition Zposition Zrotation Xrotation Yrotation
                        JOINT Bip01_L_Finger0
                        {
                          OFFSET 6.48257 0.103655 -0.504492
                          CHANNELS 6 Xposition Yposition Zposition Zrotation Xrotation Yrotation
                          JOINT Bip01_L_Finger01
                          {
                            OFFSET 3.66844 0 0
                            CHANNELS 6 Xposition Yposition Zposition Zrotation Xrotation Yrotation
                            End Site
                            {
                              OFFSET 0 0 0
                            }
                          }
                        }
                      }
                    }
                  }
                }
                JOINT Bip01_Neck1
                {
                  OFFSET 7.52459 -0.00656509 0
                  CHANNELS 6 Xposition Yposition Zposition Zrotation Xrotation Yrotation
                  JOINT Bip01_Neck2
                  {
                    OFFSET 8.4783 -0.00588226 0
                    CHANNELS 6 Xposition Yposition Zposition Zrotation Xrotation Yrotation
                    JOINT Bip01_Head
                    {
                      OFFSET 8.41606 0 0
                      CHANNELS 6 Xposition Yposition Zposition Zrotation Xrotation Yrotation
                      JOINT EyesBlue
                      {
                        OFFSET 0 0 0
                        CHANNELS 6 Xposition Yposition Zposition Zrotation Xrotation Yrotation
                        JOINT EyesBlue_2
                        {
                          OFFSET 0 -0.500007 0
                          CHANNELS 6 Xposition Yposition Zposition Zrotation Xrotation Yrotation
                          End Site
                          {
                            OFFSET 0 0 0
                          }
                        }
                      }
                      JOINT Bip01_Head2_Eyeleds
                      {
                        OFFSET 6.52751 7.61746 2.2e-005
                        CHANNELS 6 Xposition Yposition Zposition Zrotation Xrotation Yrotation
                        End Site
                        {
                          OFFSET 0 0 0
                        }
                      }
                      JOINT Bip01_Head_Muzzle
                      {
                        OFFSET 2.88628 13.9448 3.88994
                        CHANNELS 6 Xposition Yposition Zposition Zrotation Xrotation Yrotation
                        End Site
                        {
                          OFFSET 0 0 0
                        }
                      }
                      JOINT Bip01_Head1_Jaw
                      {
                        OFFSET 0.271065 1.32405 0
                        CHANNELS 6 Xposition Yposition Zposition Zrotation Xrotation Yrotation
                        JOINT _Bip01_Head11_TungeControler
                        {
                          OFFSET 4.61616 5.82872 0
                          CHANNELS 6 Xposition Yposition Zposition Zrotation Xrotation Yrotation
                          JOINT _Bip01_Ponytail3_tunge
                          {
                            OFFSET 5.17785 2.98805 0
                            CHANNELS 6 Xposition Yposition Zposition Zrotation Xrotation Yrotation
                            JOINT Bip01_Ponytail31
                            {
                              OFFSET 5.57569 0 0
                              CHANNELS 6 Xposition Yposition Zposition Zrotation Xrotation Yrotation
                              JOINT Bip01_Ponytail32
                              {
                                OFFSET 2.93165 0 0
                                CHANNELS 6 Xposition Yposition Zposition Zrotation Xrotation Yrotation
                                JOINT Bip01_Ponytail3Nub
                                {
                                  OFFSET 3.30155 0 0
                                  CHANNELS 6 Xposition Yposition Zposition Zrotation Xrotation Yrotation
                                  End Site
                                  {
                                    OFFSET 0 0 0
                                  }
                                }
                              }
                            }
                          }
                        }
                        JOINT Bip01_Head_JawNub
                        {
                          OFFSET 15.5776 -0.000389099 0
                          CHANNELS 6 Xposition Yposition Zposition Zrotation Xrotation Yrotation
                          End Site
                          {
                            OFFSET 0 0 0
                          }
                        }
                      }
                      JOINT Bip01_Ponytail2
                      {
                        OFFSET 9.40334 1.03973 -6.51764
                        CHANNELS 6 Xposition Yposition Zposition Zrotation Xrotation Yrotation
                        JOINT Bip01_Ponytail21
                        {
                          OFFSET 2.77018 -0.00640106 1.33514e-005
                          CHANNELS 6 Xposition Yposition Zposition Zrotation Xrotation Yrotation
                          End Site
                          {
                            OFFSET 0 0 0
                          }
                        }
                      }
                      JOINT Bip01_Ponytail1
                      {
                        OFFSET 9.40368 1.03969 6.51768
                        CHANNELS 6 Xposition Yposition Zposition Zrotation Xrotation Yrotation
                        JOINT Bip01_Ponytail11
                        {
                          OFFSET 2.77018 -0.00640487 0
                          CHANNELS 6 Xposition Yposition Zposition Zrotation Xrotation Yrotation
                          End Site
                          {
                            OFFSET 0 0 0
                          }
                        }
                      }
                    }
                  }
                }
              }
            }
          }
        }
      }
    }
  }
}
MOTION
Frames:	4
Frame Time:	0.0333333
0 0 0 -0 -90 -0 0.00081 -24.7447 51.0025 89.9996 0.000545403 83.0374 0 0 0 -89.9999 -0.000203318 -101.471 -6.34784 -3.85846 1.29201 164.107 -0.893225 -16.0129 10.383 -0.008129 -4.3e-005 -1.48069 0.713422 12.3174 10.3818 -0.00798 0.000263 -11.9864 -1.12534 11.7492 10.3843 -0.00811 0.000771 7.01498 -4.50678 14.2249 10.3827 -0.007953 0.001876 -3.72979 -12.4699 6.63921 1.1e-005 -1.1e-005 -8.75617 -87.7816 -10.295 -174.885 19.7638 -1e-006 -5.32907e-015 -62.6856 0.00049632 0.002049 18.6534 -3e-006 -1e-006 -42.5594 2.68842 7.14966 5.09143 13.9567 2.7012e-006 108.018 2.57999 -4.28464 4.288 -1.42109e-014 0 51.5008 0.00161397 0.00056316 3.85799 3.55271e-015 1.77636e-015 -45.0003 0.000572153 0.00138093 -1.5e-005 1.5e-005 8.75617 -77.8754 -11.7154 177.527 19.7638 -1e-006 7.99361e-015 -78.0388 -0.000315615 -0.00302283 18.6534 -7.10543e-015 0 -38.4377 -0.74229 -6.25276 5.09143 13.9567 -1.11174e-007 81.6088 -3.37563 3.69066 4.288 -3e-006 -2.4869e-014 -18.5 1.60313e-007 1.70512e-007 3.85799 0 -3.55271e-015 -2.5 -1.72454e-005 -7.39503e-007 8.96338 -0.006252 -1.82326 -11.7251 -4.22676 21.9939 8.04388 -0.006309 8.4e-005 2.47594 -0.350496 -5.56389 8.04385 -0.006301 8.8e-005 0.982881 0.195291 -2.06722 8.04399 -0.008235 0.000119 2.65546 -0.717816 -3.02481 10.6708 1.06817 1.94548e-006 9.58996 0.00170618 -0.000161928 -4.40171 -3.8676 -9.04801 177.846 -85.4165 137.992 19.0492 1e-006 2.13163e-014 92.4926 19.5797 -103.233 10.3706 -5.2e-005 4e-006 -86.8759 3.53526e-007 -2.36869e-006 22.8631 1.42109e-014 -4.44089e-015 19.9511 12.1145 3.54993 6.48255 0.103657 0.504496 -28.8485 -12.084 -9.77474 3.66844 0 7.10543e-015 40.108 -8.00728e-006 2.39909e-005 -4.40171 -3.86764 9.04798 177.853 85.4165 -132.333 19.0492 -1.08358e-013 7e-006 77.0241 -38.2174 76.2998 10.3706 1.06581e-014 -3.55271e-015 -74.7211 9.01851e-005 0.000774487 22.8631 -7.00001e-006 -1e-006 45.1174 -10.1042 8.70842 6.48256 0.103657 -0.504496 -8.97378 14.6447 5.13984 3.66843 2.4869e-013 -3e-006 25.6094 0.00116598 0.000731511 7.5253 -0.006637 2.80002e-005 -7.89868 0.00122915 0.00140972 8.47874 -0.005428 6.0003e-006 34.1794 8.90436e-005 5.07948e-005 8.41605 0 2.66454e-015 -88.6694 1.19 1.61778 -7e-006 3e-006 -3e-006 -23.1098 1.37701e-015 90 2.00888e-007 -0.499996 4.51342e-006 93.5092 89.9998 -3.5092 0 0 0 -113.549 0.000457764 -180 5.36567 13.4653 3.88993 -23.4392 1.39554e-015 90 0 0 0 -73.906 -7.01671e-015 -180 0 0 0 -138.736 0.000111642 -1.55155e-005 0 0 0 156.768 -2.29716 -5.29351 0 0 0 -13.7181 -0.763522 5.57221 0 0 0 -25.1519 -11.776 9.81027 0 0 0 -26.1943 3.54572e-007 8.27744e-006 15.5776 -0.000396 -7.00001e-006 1.27222e-014 -9.93923e-017 -2.48481e-017 9.4036 1.03978 -6.51606 -5.81476 -20.043 20.1801 2.7701 -0.006017 0.002117 2.27248 -18.4987 -0.510494 9.40406 1.03966 6.51624 -5.81433 20.045 -20.1758 2.77011 -0.006002 -0.002107 2.27168 18.5004 0.512633 
-2.00001e-007 0 -15.547 -0 -90 -0 0.00081 -24.7447 53.9664 90.0001 0.000281183 88.6257 0 0 0 -89.9999 -0.00020333 -101.472 -6.34921 -3.85846 1.2922 172.888 -4.10367 -16.9816 10.383 -0.008129 -4.3e-005 -2.04004 0.583058 10.8899 10.3818 -0.00798 0.000263001 -11.7307 -1.15577 10.317 10.3843 -0.00811 0.000770999 3.16148 -5.23704 12.4696 10.3827 -0.007953 0.001876 -4.4991 -12.5687 5.03686 1.1e-005 -1.1e-005 -8.75617 -84.4021 -10.1291 -173.876 19.7638 -1e-006 1.33227e-015 -67.0128 0.000411448 0.00205031 18.6534 -3e-006 -1e-006 -43.685 1.95002 7.3513 5.09143 13.9567 6.09993e-007 102.169 3.11168 -3.78828 4.288 7.10543e-015 0 45.1323 0.00154135 0.000738408 3.85799 0 0 -44.9915 0.000572276 0.00138118 -1.5e-005 1.5e-005 8.75617 -80.0996 -11.6745 177.072 19.7638 -1e-006 -2.66454e-015 -88.6504 -2.65096e-005 -0.0030228 18.6534 -2.84217e-014 4.44089e-015 -32.0794 -0.484233 -6.33031 5.09143 13.9567 -1.1064e-007 81.6088 -3.37563 3.69066 4.288 -3e-006 -3.73035e-014 -18.5 1.35697e-007 2.19816e-007 3.85799 0 0 -2.5 -1.72255e-005 -7.32002e-007 8.96367 -0.006252 -1.82298 -9.34237 -3.37185 22.0334 8.04388 -0.006309 8.4e-005 -0.874164 -0.0220809 -5.68334 8.04385 -0.006301 8.8e-005 1.03265 0.191469 -2.18056 8.04399 -0.008235 0.000119 4.44013 -0.820855 -3.11715 10.6708 1.06817 1.88058e-006 9.58996 0.00168554 -0.000161348 -4.40171 -3.8676 -9.04801 178.971 -86.9989 131.018 19.0492 1e-006 0 91.5642 18.0217 -100.986 10.3706 -5.2e-005 4e-006 -86.8758 2.25926e-006 -2.47236e-006 22.8631 1.42109e-014 -2.66454e-015 14.488 9.88701 3.8596 6.48256 0.103657 0.504496 -42.1281 -9.12497 -12.477 3.66844 1.42109e-014 -1.77636e-015 40.108 -1.8266e-005 3.34916e-005 -4.40171 -3.86764 9.04798 177.855 85.4175 -129.959 19.0492 -8.34888e-014 7e-006 77.8471 -50.0441 78.5428 10.3706 -7.10543e-015 -7.10542e-015 -60.8306 0.000200014 0.000771987 22.8631 -7.00001e-006 -1e-006 31.7902 -9.31988 7.39571 6.48256 0.103657 -0.504496 -16.2858 13.8997 6.91773 3.66843 2.70007e-013 -3e-006 25.5031 0.00116459 0.000733373 7.5253 -0.006637 2.79982e-005 -7.63354 0.00125851 0.00140631 8.47874 -0.005428 6.00085e-006 28.6726 7.91315e-005 6.21049e-005 8.41605 2.84217e-014 0 -85.8869 0.686669 1.76624 -7e-006 3e-006 -3e-006 -23.1098 1.37701e-015 90 2.03718e-007 -0.499996 4.51525e-006 145.304 90 -55.304 0 0 0 -113.549 1.52588e-005 -180 5.36566 13.4653 3.88993 -23.4392 1.39554e-015 90 0 0 0 -75.4505 -7.01671e-015 -180 0 0 0 -138.736 0.000124055 -1.59272e-005 0 0 0 156.768 -2.29715 -5.29351 0 0 0 -13.7181 -0.763522 5.57221 0 0 0 -25.1519 -11.776 9.81027 0 0 0 -26.1943 2.18702e-008 7.95417e-006 15.5776 -0.000396 -7.00001e-006 4.31046e-035 2.48481e-017 -9.93923e-017 9.4036 1.03978 -6.51606 -5.44843 -19.5688 19.4425 2.7701 -0.006017 0.002117 2.27249 -18.4997 -0.510475 9.40406 1.03966 6.51624 -5.44772 19.5707 -19.4401 2.77011 -0.006002 -0.002107 2.27169 18.5013 0.512624 
-4.00005e-007 0 -31.0943 -0 -90 -0 0.00081 -24.7447 54.0571 90.0002 -0.000406865 94.2165 0 0 0 -90 -0.000209389 -101.471 -6.35057 -3.85846 1.29197 -178.411 -7.38333 -17.4411 10.383 -0.008129 -4.3e-005 -2.58669 0.466715 9.48302 10.3818 -0.00798 0.000262998 -11.4826 -1.19354 8.90708 10.3843 -0.00811 0.000770998 -0.672173 -5.84471 10.6959 10.3827 -0.007953 0.001876 -5.26978 -12.6475 3.45496 1.1e-005 -1.1e-005 -8.75617 -80.9871 -9.89616 -172.874 19.7638 -1e-006 5.32907e-015 -71.2428 0.000330902 0.00205042 18.6534 -3e-006 -1e-006 -45.1633 1.11093 7.49091 5.09143 13.9567 1.73854e-007 91.6088 3.9077 -2.75398 4.288 -1.42109e-014 7.10543e-015 33.6933 0.00136391 0.00102956 3.85799 1.77636e-014 -3.55271e-015 -45.0052 0.000572336 0.00138152 -1.5e-005 1.5e-005 8.75617 -81.1212 -11.6804 176.854 19.7638 -1e-006 9.76996e-015 -98.0604 0.000212355 -0.00302266 18.6534 -7.10543e-015 5.32907e-015 -25.9154 -0.207222 -6.40241 5.09143 13.9567 -1.13136e-007 81.6088 -3.37563 3.69066 4.288 -3e-006 -4.79616e-014 -18.5 2.04732e-007 3.03344e-007 3.85799 0 3.55271e-015 -2.5 -1.70482e-005 -7.24124e-007 8.96414 -0.006252 -1.82206 -6.9984 -2.52889 22.0331 8.04388 -0.006309 8.4e-005 -4.22664 0.319972 -5.78999 8.04385 -0.006301 8.8e-005 1.0731 0.187836 -2.29318 8.04399 -0.008235 0.000119 6.20935 -0.929488 -3.20739 10.6708 1.06817 -7.19316e-007 9.58996 0.00155983 -0.000138115 -4.40171 -3.8676 -9.04801 -179.448 -88.5342 125.176 19.0492 1e-006 -1.42109e-014 91.3661 16.408 -99.0923 10.3706 -5.2e-005 4e-006 -86.8757 2.44465e-006 -2.68392e-006 22.8631 1.42109e-014 7.10543e-015 8.08445 7.80669 3.91651 6.48256 0.103657 0.504496 -55.5194 -5.62774 -14.406 3.66844 -7.10543e-015 1.77636e-015 40.108 -3.22231e-005 4.57992e-005 -4.40171 -3.86764 9.04798 177.854 85.4173 -128.439 19.0492 -4.61853e-014 7e-006 80.5404 -57.9304 82.9286 10.3706 7.10543e-015 -7.10542e-015 -49.8258 0.000291606 0.00076521 22.8631 -7.00001e-006 -1e-006 18.5048 -8.51694 6.10014 6.48256 0.103657 -0.504496 -24.9023 12.6475 8.91572 3.66843 3.41061e-013 -3e-006 25.7113 0.00116664 0.000729028 7.5253 -0.006637 2.79996e-005 -7.18878 0.00124266 0.0013951 8.47874 -0.005428 5.99943e-006 23.1435 8.69355e-005 6.37163e-005 8.41605 0 1.77636e-015 -83.2851 0.186674 1.88566 -7e-006 3e-006 -3e-006 -23.1098 1.37701e-015 90 2.06457e-007 -0.499996 4.51785e-006 -180 90 -90 0 0 0 -113.549 7.01671e-015 -180 5.36566 13.4653 3.88993 -23.4392 1.39554e-015 90 0 0 0 -76.995 -1.52588e-005 -180 0 0 0 -138.736 5.40475e-005 -1.62883e-005 0 0 0 156.768 -2.29721 -5.29354 0 0 0 -13.7181 -0.763522 5.57221 0 0 0 -25.1519 -11.776 9.81027 0 0 0 -26.1943 -2.69379e-007 7.6546e-006 15.5776 -0.000396 -7e-006 -1.29314e-034 7.45443e-017 9.93923e-017 9.4036 1.03978 -6.51606 -5.24846 -19.3147 19.0474 2.7701 -0.006017 0.002117 2.27253 -18.4987 -0.510476 9.40406 1.03966 6.51624 -5.24865 19.3166 -19.0448 2.77011 -0.006002 -0.002107 2.27171 18.5002 0.512641 
-6.00005e-007 0 -46.6412 -0 -90 -0 0.00081 -24.7447 53.4769 90.0003 -0.000276596 98.2882 0 0 0 -90 -0.000200285 -101.471 -6.35187 -3.85846 1.29131 -170.683 -10.2756 -17.7855 10.383 -0.008129 -4.3e-005 -2.3836 0.518709 7.93259 10.3818 -0.00798 0.000263 -10.4014 -1.05686 7.37892 10.3843 -0.00811 0.000770997 -3.13748 -6.09492 8.90273 10.3827 -0.007953 0.001876 -4.97813 -12.6059 1.97068 1.1e-005 -1.1e-005 -8.75617 -78.624 -9.71776 -172.141 19.7638 -1e-006 5.32907e-015 -75.3483 0.000263132 0.00205001 18.6534 -3e-006 -1e-006 -45.8765 0.436633 7.53716 5.09143 13.9567 2.94424e-008 82.5489 4.47626 -1.79187 4.288 -1.42109e-014 1.77636e-015 23.8781 0.00116783 0.00124757 3.85799 3.55271e-015 0 -44.9999 0.000572287 0.00138116 -1.5e-005 1.5e-005 8.75617 -82.577 -11.6538 176.661 19.7638 -1e-006 3.9968e-015 -105.709 0.000418981 -0.00302199 18.6534 -1.42109e-014 2.66454e-015 -18.8236 -0.184461 -6.39867 5.09143 13.9567 -1.12644e-007 81.6088 -3.37563 3.69066 4.288 -3e-006 -5.68434e-014 -18.5 4.59243e-007 3.49923e-007 3.85799 2.13163e-014 -3.55271e-015 -2.5 -1.6665e-005 -7.29153e-007 8.96467 -0.006252 -1.82061 -4.73154 -1.71204 22.01 8.04388 -0.006309 8.4e-005 -6.64954 0.577952 -5.879 8.04385 -0.006301 8.8e-005 1.32513 0.175492 -2.39179 8.04399 -0.008235 0.000119 7.84473 -1.03523 -3.28293 10.6708 1.06817 2.07823e-006 9.58996 0.00170918 -0.000163114 -4.40171 -3.8676 -9.04801 -52.4646 -89.8796 -115.898 19.0492 1e-006 1.42109e-014 91.3256 15.2288 -97.4475 10.3706 -5.2e-005 4e-006 -86.8756 2.24691e-006 -3.06202e-006 22.8631 2.84217e-014 -1.5099e-014 3.04587 5.62752 3.81695 6.48256 0.103657 0.504496 -68.0618 -1.94758 -15.5308 3.66844 -3.4639e-014 -1.24345e-014 40.108 6.14236e-005 -3.36939e-005 -4.40171 -3.86764 9.04798 177.853 85.4193 -125.986 19.0492 -4.79617e-014 7e-006 85.0166 -70.0139 89.1444 10.3706 0 3.55271e-015 -36.4914 0.00041317 0.00074214 22.8631 -7.00001e-006 -1e-006 5.48417 -7.25941 5.29251 6.48256 0.103657 -0.504496 -31.7629 11.5885 10.3472 3.66843 3.05534e-013 -3e-006 25.5046 0.00116252 0.000733486 7.5253 -0.006637 2.79998e-005 -6.80144 0.00125358 0.00138646 8.47874 -0.005428 5.9997e-006 17.5917 7.77875e-005 7.285e-005 8.41605 0 -1.77636e-015 -81.5093 -0.295861 1.89984 -7e-006 3e-006 -3e-006 -23.1098 1.37701e-015 90 2.08776e-007 -0.499996 4.52212e-006 180 90 -90 0 0 0 -113.549 7.01671e-015 -180 5.36566 13.4653 3.88993 -23.4392 1.39554e-015 90 0 0 0 -78.5396 -7.01671e-015 -180 0 0 0 -138.736 4.64135e-005 -1.65521e-005 0 0 0 156.768 -2.29722 -5.29354 0 0 0 -13.7181 -0.763522 5.57221 0 0 0 -25.1519 -11.776 9.81027 0 0 0 -26.1943 -4.38057e-007 7.49909e-006 15.5776 -0.000396 -7e-006 -6.36111e-015 2.48481e-017 9.93923e-017 9.4036 1.03978 -6.51606 -5.28995 -19.367 19.129 2.7701 -0.006017 0.002117 2.27242 -18.4998 -0.510592 9.40406 1.03966 6.51624 -5.29058 19.3692 -19.1266 2.77011 -0.006002 -0.002107 2.27168 18.5012 0.512737 
